<svg width="457" height="224" viewBox="0 0 457 224" fill="none" xmlns="http://www.w3.org/2000/svg">
<path d="M384.952 132.49C377.08 132.49 369.976 130.81 363.64 127.45C357.4 124.09 352.456 119.29 348.808 113.05C345.256 106.81 343.48 99.514 343.48 91.162C343.48 82.906 345.304 75.658 348.952 69.418C352.6 63.082 357.592 58.234 363.928 54.874C370.264 51.514 377.368 49.834 385.24 49.834C393.112 49.834 400.216 51.514 406.552 54.874C412.888 58.234 417.88 63.082 421.528 69.418C425.176 75.658 427 82.906 427 91.162C427 99.418 425.128 106.714 421.384 113.05C417.736 119.29 412.696 124.09 406.264 127.45C399.928 130.81 392.824 132.49 384.952 132.49ZM384.952 111.178C389.656 111.178 393.64 109.45 396.904 105.994C400.264 102.538 401.944 97.594 401.944 91.162C401.944 84.73 400.312 79.786 397.048 76.33C393.88 72.874 389.944 71.146 385.24 71.146C380.44 71.146 376.456 72.874 373.288 76.33C370.12 79.69 368.536 84.634 368.536 91.162C368.536 97.594 370.072 102.538 373.144 105.994C376.312 109.45 380.248 111.178 384.952 111.178Z" fill="#F9C639"/>
<path d="M298.466 50.122C308.45 50.122 316.37 53.146 322.226 59.194C328.178 65.242 331.154 73.642 331.154 84.394V131.338H306.674V87.706C306.674 82.522 305.282 78.538 302.498 75.754C299.81 72.874 296.066 71.434 291.266 71.434C286.466 71.434 282.674 72.874 279.89 75.754C277.202 78.538 275.858 82.522 275.858 87.706V131.338H251.378V87.706C251.378 82.522 249.986 78.538 247.202 75.754C244.514 72.874 240.77 71.434 235.97 71.434C231.17 71.434 227.378 72.874 224.594 75.754C221.906 78.538 220.562 82.522 220.562 87.706V131.338H195.938V50.986H220.562V61.066C223.058 57.706 226.322 55.066 230.354 53.146C234.386 51.13 238.946 50.122 244.034 50.122C250.082 50.122 255.458 51.418 260.162 54.01C264.962 56.602 268.706 60.298 271.394 65.098C274.178 60.682 277.97 57.082 282.77 54.298C287.57 51.514 292.802 50.122 298.466 50.122Z" fill="white"/>
<path d="M178.251 50.986V131.338H153.627V120.394C151.131 123.946 147.723 126.826 143.403 129.034C139.179 131.146 134.475 132.202 129.291 132.202C123.147 132.202 117.723 130.858 113.019 128.17C108.315 125.386 104.667 121.402 102.075 116.218C99.4832 111.034 98.1872 104.938 98.1872 97.93V50.986H122.667V94.618C122.667 99.994 124.059 104.17 126.843 107.146C129.627 110.122 133.371 111.61 138.075 111.61C142.875 111.61 146.667 110.122 149.451 107.146C152.235 104.17 153.627 99.994 153.627 94.618V50.986H178.251Z" fill="white"/>
<path d="M54.9062 112.33H87.1622V131.338H30.2822V30.25H54.9062V112.33Z" fill="white"/>
<path d="M399.282 183.007C399.282 184.944 398.043 186.663 396.205 187.275L391.691 188.779C391.203 191.602 388.745 193.75 385.782 193.75C382.82 193.75 380.36 191.602 379.872 188.779L375.359 187.275C373.522 186.663 372.282 184.944 372.282 183.007V165.25L343.782 123.25C343.782 123.25 357.282 141.25 385.032 141.25C412.782 141.25 426.282 123.25 426.282 123.25L399.282 165.25V183.007Z" fill="white"/>
<circle cx="385.782" cy="91.75" r="21" fill="#F9C639"/>
<path d="M324.517 193.75C320.561 193.75 317 193.05 313.835 191.65C310.731 190.189 308.266 188.241 306.44 185.807C304.614 183.311 303.64 180.542 303.518 177.498H314.292C314.474 179.629 315.479 181.424 317.305 182.885C319.192 184.285 321.535 184.985 324.335 184.985C327.257 184.985 329.509 184.437 331.091 183.342C332.735 182.185 333.556 180.724 333.556 178.959C333.556 177.072 332.643 175.672 330.817 174.759C329.052 173.846 326.222 172.842 322.326 171.746C318.552 170.711 315.479 169.707 313.105 168.733C310.731 167.759 308.661 166.268 306.896 164.259C305.192 162.251 304.34 159.603 304.34 156.316C304.34 153.638 305.131 151.203 306.714 149.012C308.296 146.76 310.548 144.995 313.47 143.716C316.452 142.438 319.861 141.799 323.696 141.799C329.417 141.799 334.013 143.26 337.482 146.182C341.013 149.042 342.9 152.968 343.143 157.96H332.735C332.552 155.707 331.639 153.912 329.996 152.573C328.352 151.234 326.13 150.564 323.331 150.564C320.591 150.564 318.492 151.081 317.031 152.116C315.57 153.151 314.839 154.52 314.839 156.225C314.839 157.564 315.326 158.69 316.3 159.603C317.274 160.516 318.461 161.246 319.861 161.794C321.261 162.281 323.331 162.92 326.07 163.712C329.722 164.685 332.704 165.69 335.017 166.725C337.391 167.698 339.43 169.159 341.134 171.107C342.839 173.055 343.721 175.642 343.782 178.868C343.782 181.729 342.991 184.285 341.408 186.537C339.826 188.789 337.574 190.554 334.652 191.833C331.791 193.111 328.413 193.75 324.517 193.75Z" fill="#F9C639"/>
<path d="M275.746 193.75C271.789 193.75 268.228 193.05 265.063 191.65C261.959 190.189 259.494 188.241 257.668 185.807C255.842 183.311 254.868 180.542 254.746 177.498H265.52C265.702 179.629 266.707 181.424 268.533 182.885C270.42 184.285 272.763 184.985 275.563 184.985C278.485 184.985 280.737 184.437 282.319 183.342C283.963 182.185 284.785 180.724 284.785 178.959C284.785 177.072 283.872 175.672 282.045 174.759C280.28 173.846 277.45 172.842 273.554 171.746C269.781 170.711 266.707 169.707 264.333 168.733C261.959 167.759 259.889 166.268 258.124 164.259C256.42 162.251 255.568 159.603 255.568 156.316C255.568 153.638 256.359 151.203 257.942 149.012C259.524 146.76 261.776 144.995 264.698 143.716C267.681 142.438 271.089 141.799 274.924 141.799C280.646 141.799 285.241 143.26 288.711 146.182C292.241 149.042 294.128 152.968 294.371 157.96H283.963C283.78 155.707 282.867 153.912 281.224 152.573C279.58 151.234 277.359 150.564 274.559 150.564C271.82 150.564 269.72 151.081 268.259 152.116C266.798 153.151 266.068 154.52 266.068 156.225C266.068 157.564 266.555 158.69 267.528 159.603C268.502 160.516 269.689 161.246 271.089 161.794C272.489 162.281 274.559 162.92 277.298 163.712C280.95 164.685 283.932 165.69 286.245 166.725C288.619 167.698 290.658 169.159 292.363 171.107C294.067 173.055 294.95 175.642 295.01 178.868C295.01 181.729 294.219 184.285 292.637 186.537C291.054 188.789 288.802 190.554 285.88 191.833C283.019 193.111 279.641 193.75 275.746 193.75Z" fill="#F9C639"/>
<path d="M199.27 167.729C199.27 162.555 200.305 158.02 202.374 154.125C204.505 150.168 207.426 147.125 211.139 144.995C214.852 142.864 219.113 141.799 223.922 141.799C230.008 141.799 235.03 143.26 238.986 146.182C243.004 149.042 245.712 153.151 247.112 158.507H235.882C234.969 156.012 233.508 154.064 231.5 152.664C229.491 151.264 226.965 150.564 223.922 150.564C219.661 150.564 216.252 152.086 213.696 155.129C211.2 158.112 209.952 162.312 209.952 167.729C209.952 173.146 211.2 177.376 213.696 180.42C216.252 183.463 219.661 184.985 223.922 184.985C229.948 184.985 233.934 182.337 235.882 177.042H247.112C245.652 182.155 242.912 186.233 238.895 189.276C234.878 192.259 229.887 193.75 223.922 193.75C219.113 193.75 214.852 192.685 211.139 190.554C207.426 188.363 204.505 185.32 202.374 181.424C200.305 177.468 199.27 172.903 199.27 167.729Z" fill="#F9C639"/>
<path d="M184.916 193.567C183.029 193.567 181.447 192.928 180.169 191.65C178.89 190.372 178.251 188.789 178.251 186.902C178.251 185.015 178.89 183.433 180.169 182.155C181.447 180.876 183.029 180.237 184.916 180.237C186.742 180.237 188.294 180.876 189.573 182.155C190.851 183.433 191.49 185.015 191.49 186.902C191.49 188.789 190.851 190.372 189.573 191.65C188.294 192.928 186.742 193.567 184.916 193.567Z" fill="#F9C639"/>
</svg>
